<svg xmlns="http://www.w3.org/2000/svg" width="27" height="18" viewBox="0 0 27 18">
    <g fill="none" fill-rule="nonzero">
        <path fill="#F0F0F0" d="M0 .017h26.794v17.282H0z"/>
        <path fill="#D80027" d="M15.072.017h-3.35v7.02H0v3.24h11.722V17.3h3.35v-7.021h11.722v-3.24H15.072z"/>
        <g fill="#0052B4">
            <path d="M20.607 11.663l6.187 3.325v-3.325zM16.31 11.663L26.793 17.3v-1.594l-7.52-4.042zM24.001 17.299l-7.692-4.135v4.135z"/>
        </g>
        <path fill="#F0F0F0" d="M16.31 11.663L26.793 17.3v-1.594l-7.52-4.042z"/>
        <path fill="#D80027" d="M16.31 11.663L26.793 17.3v-1.594l-7.52-4.042z"/>
        <g fill="#0052B4">
            <path d="M4.728 11.663L0 14.204v-2.54zM10.485 12.38v4.919H1.334z"/>
        </g>
        <path fill="#D80027" d="M7.52 11.663L0 15.705V17.3l10.485-5.636z"/>
        <g fill="#0052B4">
            <path d="M6.186 5.652L0 2.327v3.325zM10.485 5.652L0 .017V1.61l7.52 4.042zM2.793.017l7.692 4.134V.017z"/>
        </g>
        <path fill="#F0F0F0" d="M10.485 5.652L0 .017V1.61l7.52 4.042z"/>
        <path fill="#D80027" d="M10.485 5.652L0 .017V1.61l7.52 4.042z"/>
        <g fill="#0052B4">
            <path d="M22.066 5.652l4.728-2.54v2.54zM16.31 4.936V.016h9.15z"/>
        </g>
        <path fill="#D80027" d="M19.274 5.652l7.52-4.042V.017L16.309 5.652z"/>
    </g>
</svg>
