<?xml version="1.0" encoding="UTF-8"?>
<svg width="14px" height="14px" viewBox="0 0 14 14" version="1.1" xmlns="http://www.w3.org/2000/svg" xmlns:xlink="http://www.w3.org/1999/xlink">
    <!-- Generator: Sketch 54.1 (76490) - https://sketchapp.com -->
    <title>Shape</title>
    <desc>Created with Sketch.</desc>
    <g id="web-3" stroke="none" stroke-width="1" fill="none" fill-rule="evenodd">
        <g id="chat---new-message-below" transform="translate(-1622.000000, -630.000000)" fill="#0DA83B" fill-rule="nonzero">
            <g id="Group-10" transform="translate(1550.000000, 0.000000)">
                <g id="Group-26" transform="translate(50.000000, 603.000000)">
                    <path d="M36,34 C36,36.0490909 35.1149455,37.8950545 33.7141818,39.1817818 L33.4812727,39.3762545 C33.4581091,39.3958545 33.4326545,39.4124 33.4089818,39.4314909 C33.3023273,39.5182909 33.1926182,39.6012727 33.0808727,39.6817091 C33.0342909,39.7153091 32.9882182,39.7491636 32.9411273,39.7812364 C32.8102909,39.8708364 32.6756364,39.9550909 32.5386909,40.0357818 C32.5015273,40.0576727 32.4643636,40.0790545 32.4269455,40.1001818 C32.2765091,40.1849455 32.1230182,40.2646182 31.9659636,40.3384364 C31.9466182,40.3476 31.9270182,40.356 31.9076727,40.3649091 C31.3828,40.6057091 30.8233091,40.7831273 30.2386182,40.888 C30.2228364,40.8910545 30.2068,40.8938545 30.1910182,40.8966545 C30.0085091,40.9279636 29.8237091,40.9526545 29.6366182,40.9697091 C29.6129455,40.9717455 29.5892727,40.9730182 29.5656,40.9750545 C29.3787636,40.9900727 29.1906545,41 29,41 C28.8075636,41 28.6176727,40.9900727 28.4298182,40.9745455 C28.4066545,40.9725091 28.3837455,40.9712364 28.3608364,40.9692 C28.1722182,40.9521455 27.9858909,40.9266909 27.8016,40.8948727 C27.7858182,40.8920727 27.7702909,40.8892727 27.7547636,40.8864727 C27.1611636,40.7793091 26.5935273,40.5978182 26.0617818,40.3506545 C26.0498182,40.3450545 26.0376,40.3399636 26.0256364,40.3343636 C25.8624727,40.2574909 25.7031273,40.1737455 25.5470909,40.0849091 C25.5157818,40.0670909 25.4844727,40.0492727 25.4534182,40.0309455 C25.3108727,39.9466909 25.1713818,39.8578545 25.0354545,39.7641818 C24.9934545,39.7351636 24.9522182,39.7053818 24.9109818,39.6756 C24.7837091,39.5837091 24.6587273,39.4887636 24.5380727,39.3887273 C24.5233091,39.3765091 24.5072727,39.3663273 24.4925091,39.3538545 L24.2654545,39.1624364 L24.2720727,39.1565818 C22.8766545,37.8762182 22,36.0386545 22,34 C22,30.1403273 25.1403273,27 29,27 C32.8596727,27 36,30.1403273 36,34 Z M22.5090909,34 C22.5090909,35.9146909 23.3429818,37.6379636 24.6663636,38.8272 C24.73,38.7816364 24.7936364,38.7409091 24.8577818,38.7060364 L26.8704727,37.6081818 C27.0529818,37.5084 27.1662545,37.3174909 27.1662545,37.1097818 L27.1662545,36.3731273 C27.0094545,36.1659273 26.5851273,35.5545091 26.3789455,34.7468364 C26.1636,34.5704364 26.0378545,34.3090182 26.0378545,34.0287636 L26.0378545,33.1264 C26.0378545,32.9057091 26.1190545,32.6916364 26.2636364,32.5233818 L26.2636364,31.3354182 C26.2504,31.2035636 26.2035636,30.4577455 26.7429455,29.8427636 C27.2120727,29.3074545 27.9713818,29.0363636 29,29.0363636 C30.0286182,29.0363636 30.7879273,29.3074545 31.2570545,29.8430182 C31.7964364,30.458 31.7496,31.2033091 31.7363636,31.3356727 L31.7363636,32.5236364 C31.8812,32.6918909 31.9621455,32.9059636 31.9621455,33.1266545 L31.9621455,34.0290182 C31.9621455,34.3917455 31.7539273,34.7129818 31.4314182,34.8662182 C31.2682545,35.3378909 31.0445091,35.7762182 30.7655273,36.1702545 C30.7110545,36.2468727 30.6583636,36.3166182 30.6084727,36.3782182 L30.6084727,37.1309091 C30.6084727,37.3470182 30.7286182,37.5414909 30.9220727,37.6382182 L33.0773091,38.7157091 C33.1544364,38.7544 33.2297818,38.8007273 33.3046182,38.8524 C34.6445455,37.6626545 35.4909091,35.9286909 35.4909091,34 C35.4909091,30.4208364 32.5791636,27.5090909 29,27.5090909 C25.4208364,27.5090909 22.5090909,30.4208364 22.5090909,34 Z" id="Shape"></path>
                </g>
            </g>
        </g>
    </g>
</svg>