<svg xmlns="http://www.w3.org/2000/svg" width="15" height="27" viewBox="0 0 15 27">
    <path fill="#FFF" fill-rule="nonzero" d="M14.435.006L10.837 0C6.795 0 4.183 2.608 4.183 6.645v3.063H.566A.558.558 0 0 0 0 10.26v4.44c0 .303.253.55.566.55h3.617v11.2c0 .305.253.551.566.551h4.72a.558.558 0 0 0 .565-.55V15.248h4.23a.558.558 0 0 0 .566-.55l.001-4.44a.544.544 0 0 0-.165-.39.574.574 0 0 0-.4-.16h-4.232V7.11c0-1.248.306-1.882 1.977-1.882h2.424A.558.558 0 0 0 15 4.677V.556a.558.558 0 0 0-.565-.55z"/>
</svg>
