<svg xmlns="http://www.w3.org/2000/svg" width="18" height="18" viewBox="0 0 18 18">
    <g fill="#FFF" fill-rule="nonzero">
        <path d="M16.647 8.326H10.06a.52.52 0 0 1 0-1.04h6.587a.52.52 0 0 1 0 1.04z"/>
        <path d="M14.047 10.927a.52.52 0 0 1-.368-.888l2.233-2.234-2.233-2.232a.52.52 0 1 1 .736-.736l2.6 2.6a.52.52 0 0 1 0 .736l-2.6 2.6a.517.517 0 0 1-.368.154zM6.073 17.167c-.149 0-.29-.02-.43-.064l-4.174-1.39a1.4 1.4 0 0 1-.944-1.32V1.913c0-.765.622-1.387 1.387-1.387.148 0 .289.02.43.065l4.173 1.39a1.4 1.4 0 0 1 .944 1.319V15.78c0 .764-.622 1.386-1.386 1.386zM1.912 1.565a.348.348 0 0 0-.347.347v12.482c0 .147.1.285.24.334l4.154 1.384c.03.01.07.015.114.015.19 0 .346-.156.346-.346V3.299a.36.36 0 0 0-.24-.334L2.025 1.58a.376.376 0 0 0-.113-.015z"/>
        <path d="M11.1 6.073a.52.52 0 0 1-.52-.52V2.431a.868.868 0 0 0-.867-.867H1.912a.52.52 0 0 1 0-1.04h7.801c1.052 0 1.907.855 1.907 1.907v3.12a.52.52 0 0 1-.52.52zM9.713 15.087H6.94a.52.52 0 0 1 0-1.04h2.774a.868.868 0 0 0 .867-.867v-3.12a.52.52 0 0 1 1.04 0v3.12a1.908 1.908 0 0 1-1.907 1.907z"/>
    </g>
</svg>
