<svg xmlns="http://www.w3.org/2000/svg" width="37" height="37" viewBox="0 0 37 37">
    <g fill="none" fill-rule="nonzero">
        <circle cx="18.5" cy="18.5" r="17.598" stroke="#FFF" stroke-width="1.805"/>
        <path fill="#FFF" d="M24.333 16.82c.263-1.801-1.076-2.77-2.905-3.416l.594-2.441-1.449-.37-.578 2.376c-.38-.097-.772-.189-1.161-.28l.582-2.392-1.448-.37-.594 2.44c-.315-.074-.625-.146-.925-.223l.001-.008-1.998-.512-.386 1.587s1.076.253 1.053.268c.587.15.693.549.675.865l-.676 2.78c.04.01.093.026.151.05l-.153-.04-.947 3.896c-.072.182-.254.456-.665.352.015.022-1.053-.269-1.053-.269l-.72 1.7 1.887.483c.35.09.694.184 1.032.273l-.6 2.468 1.448.37.594-2.441c.395.11.78.21 1.155.307l-.592 2.43 1.448.37.6-2.463c2.471.48 4.329.286 5.11-2.005.631-1.845-.03-2.91-1.33-3.603.947-.224 1.66-.863 1.85-2.182zm-3.624 4.694c-.448 1.77-3.481.813-4.465.573l.797-3.136c.984.242 4.137.719 3.668 2.563zm.906-4.557c-.389 1.8-2.788.884-3.566.66l.686-3.178c.778.224 3.285.641 2.88 2.518z"/>
    </g>
</svg>
