<svg xmlns="http://www.w3.org/2000/svg" width="19" height="19" viewBox="0 0 19 19">
    <path fill="#FFF" fill-rule="nonzero" d="M18.925 9.863C18.925 4.866 14.859.8 9.862.8 4.867.8.8 4.866.8 9.863a9.04 9.04 0 0 0 2.942 6.675l-.009.008.294.248c.019.016.04.03.059.045a9.108 9.108 0 0 0 .644.486 9.23 9.23 0 0 0 1.282.738l.047.021a8.98 8.98 0 0 0 2.191.694l.061.01c.239.042.48.075.724.097l.09.007c.243.02.488.033.738.033.246 0 .49-.013.732-.032l.092-.007c.242-.022.481-.054.717-.095l.062-.011a8.98 8.98 0 0 0 2.16-.677l.076-.034a9.108 9.108 0 0 0 1.263-.722c.06-.041.12-.085.18-.129a9.02 9.02 0 0 0 .426-.324c.03-.024.063-.046.093-.071l.302-.252-.01-.008a9.039 9.039 0 0 0 2.969-6.7zm-17.466 0c0-4.634 3.77-8.404 8.404-8.404 4.633 0 8.403 3.77 8.403 8.404a8.383 8.383 0 0 1-2.83 6.282 2.47 2.47 0 0 0-.295-.177l-2.79-1.395a.73.73 0 0 1-.406-.657v-.975c.064-.08.133-.17.203-.269.361-.51.651-1.077.862-1.688.418-.198.687-.614.687-1.084V8.732c0-.286-.104-.563-.292-.78V6.412c.017-.17.078-1.136-.62-1.932-.608-.694-1.59-1.045-2.922-1.045S7.548 3.787 6.94 4.48c-.698.797-.637 1.762-.62 1.933V7.95a1.2 1.2 0 0 0-.292.78V9.9c0 .363.162.701.441.93a6.192 6.192 0 0 0 1.02 2.105v.954a.735.735 0 0 1-.383.645L4.5 15.955a2.382 2.382 0 0 0-.248.157 8.383 8.383 0 0 1-2.793-6.25zm13.333 6.799a8.427 8.427 0 0 1-.351.242l-.165.106a8.285 8.285 0 0 1-.475.273l-.108.055c-.37.19-.755.354-1.15.487l-.041.014c-.207.068-.416.13-.628.182h-.002c-.213.053-.43.097-.647.133l-.018.003a8.43 8.43 0 0 1-.618.075c-.036.004-.073.006-.11.009-.204.015-.41.025-.616.025a8.38 8.38 0 0 1-.625-.026l-.107-.008a8.523 8.523 0 0 1-.65-.082 8.372 8.372 0 0 1-1.283-.32l-.039-.013a8.522 8.522 0 0 1-.613-.235l-.005-.002a8.6 8.6 0 0 1-.562-.269l-.072-.037a8.47 8.47 0 0 1-1.08-.688l-.043-.034.031-.018 2.606-1.422c.448-.244.727-.713.727-1.223v-1.187l-.077-.092a5.502 5.502 0 0 1-.989-2.049l-.03-.13-.112-.073a.546.546 0 0 1-.253-.459V8.731c0-.153.065-.296.183-.403l.109-.098V6.394l-.003-.043c-.001-.008-.098-.8.46-1.437.477-.543 1.293-.819 2.427-.819 1.129 0 1.943.274 2.42.813.558.63.467 1.437.466 1.444l-.003 1.879.109.098c.118.107.183.25.183.403V9.9a.55.55 0 0 1-.389.52l-.164.05-.052.163a6.097 6.097 0 0 1-.823 1.658c-.086.122-.17.23-.242.313l-.082.093v1.219c0 .531.295 1.009.77 1.246l2.79 1.395.053.028-.107.077z"/>
</svg>
