<svg xmlns="http://www.w3.org/2000/svg" width="35" height="35" viewBox="0 0 35 35">
    <g fill="none" fill-rule="evenodd">
        <circle cx="17.5" cy="17.5" r="17.5" fill="#323442"/>
        <path fill="#FFF" fill-rule="nonzero" d="M23.29 15.285l-4.575-4.575a2.426 2.426 0 0 0-3.43 0l-4.575 4.575a2.426 2.426 0 0 0 0 3.43l4.575 4.575a2.426 2.426 0 0 0 3.43 0l4.575-4.575a2.426 2.426 0 0 0 0-3.43zm-5.433 6.576a1.214 1.214 0 1 1-1.715-1.718 1.214 1.214 0 0 1 1.715 1.718zm0-4.004a1.212 1.212 0 1 1-1.715-1.714 1.212 1.212 0 0 1 1.715 1.714zm0-4.002a1.214 1.214 0 1 1-1.715-1.718 1.214 1.214 0 0 1 1.715 1.718zm-4.043 4.043a1.214 1.214 0 1 1-1.715-1.718 1.214 1.214 0 0 1 1.715 1.718zm8.087 0a1.214 1.214 0 1 1-1.716-1.718 1.214 1.214 0 0 1 1.716 1.718z"/>
    </g>
</svg>
