<svg xmlns="http://www.w3.org/2000/svg" width="15" height="15" viewBox="0 0 15 15">
    <path fill="#FFF" fill-rule="nonzero" d="M14.682 6.478a.32.32 0 0 1 .318.321v4.148c0 .19-.126.318-.318.318h-.352v2.651c0 .606-.478 1.084-1.084 1.084H1.053A1.068 1.068 0 0 1 0 13.916V3.894c0-.579.438-1.04.977-1.084l.012-.003L11.905 0h.064c.542 0 .99.478.99 1.084V2.81h.287c.575 0 1.053.478 1.053 1.084v2.584h.383zM12.03.606L3.54 2.807h8.808V1.084c0-.254-.16-.447-.318-.478zm1.662 13.31v-2.65H10.5A2.39 2.39 0 0 1 8.106 8.87 2.37 2.37 0 0 1 10.5 6.478h3.16V3.894c0-.254-.194-.478-.448-.478H1.053c-.254 0-.447.224-.447.478v10.022c0 .254.193.478.447.478h12.193c.254 0 .447-.224.447-.478zm.667-3.257V7.151H10.5c-.955 0-1.754.799-1.754 1.754A1.77 1.77 0 0 0 10.5 10.66h3.86zm-4.212-1.723c0-.19.129-.319.321-.319h.285a.318.318 0 1 1 0 .637h-.288a.318.318 0 0 1-.318-.318z"/>
</svg>
