<svg xmlns="http://www.w3.org/2000/svg" width="15" height="18" viewBox="0 0 15 18">
    <g fill="#FFF" fill-rule="nonzero">
        <path d="M12.61 5.067H7.675c-.19 0-.343.15-.343.333 0 .185.154.334.343.334h4.937c.19 0 .343-.15.343-.334a.338.338 0 0 0-.343-.333zM11.411 6.765a.35.35 0 0 0-.485 0 .331.331 0 0 0-.1.236c0 .087.037.173.1.235a.35.35 0 0 0 .485 0 .331.331 0 0 0 .1-.235.331.331 0 0 0-.1-.236zM7.916 1.531a.35.35 0 0 0-.485 0 .331.331 0 0 0-.1.236c0 .088.036.174.1.236a.35.35 0 0 0 .485 0 .331.331 0 0 0 .1-.236.331.331 0 0 0-.1-.236zM9.727 6.667H7.674c-.19 0-.343.15-.343.334 0 .184.154.333.343.333h2.053c.19 0 .343-.15.343-.333a.338.338 0 0 0-.343-.334zM12.61 8.667H7.675c-.19 0-.343.15-.343.334 0 .184.154.333.343.333h4.937c.19 0 .343-.15.343-.333a.338.338 0 0 0-.343-.334zM11.411 10.365a.35.35 0 0 0-.485 0 .331.331 0 0 0-.1.236c0 .088.037.174.1.236a.35.35 0 0 0 .485 0 .331.331 0 0 0 .1-.236.331.331 0 0 0-.1-.236zM9.727 10.268H7.674c-.19 0-.343.149-.343.333 0 .184.154.333.343.333h2.053c.19 0 .343-.149.343-.333a.338.338 0 0 0-.343-.333zM12.61 12.268H7.675c-.19 0-.343.149-.343.333 0 .184.154.333.343.333h4.937c.19 0 .343-.149.343-.333a.338.338 0 0 0-.343-.333zM11.411 13.966a.35.35 0 0 0-.485 0 .331.331 0 0 0-.1.235c0 .088.037.174.1.236a.35.35 0 0 0 .485 0 .331.331 0 0 0 .1-.236.331.331 0 0 0-.1-.235zM9.727 13.868H7.674c-.19 0-.343.15-.343.333 0 .184.154.334.343.334h2.053c.19 0 .343-.15.343-.334a.338.338 0 0 0-.343-.333z"/>
        <path d="M13.27 1.3h-2.618A2.132 2.132 0 0 0 9.199.733h-.3A1.38 1.38 0 0 0 7.673 0a1.38 1.38 0 0 0-1.225.733h-.3c-.564 0-1.075.216-1.454.567H2.077c-.921 0-1.671.73-1.671 1.626v12.517c0 .896.75 1.625 1.671 1.625H13.27c.922 0 1.672-.729 1.672-1.625V2.926c0-.897-.75-1.626-1.672-1.626zm-7.122.1h.535c.154 0 .29-.1.33-.245a.685.685 0 0 1 .66-.488c.308 0 .58.2.662.488a.342.342 0 0 0 .33.245H9.2c.744 0 1.356.558 1.418 1.267H4.73c.06-.709.673-1.267 1.417-1.267zm8.108 14.043c0 .528-.442.958-.986.958H2.077c-.543 0-.986-.43-.986-.958V2.926c0-.53.443-.96.986-.96h2.138a1.99 1.99 0 0 0-.175.818V3c0 .184.153.334.343.334h6.581c.19 0 .343-.15.343-.334v-.216c0-.29-.062-.567-.175-.817h2.138c.544 0 .986.43.986.959v12.517z"/>
        <path d="M3.873 12.47l.278.625.71.058c.049.004.069.062.032.093l-.539.444.161.66c.012.047-.04.083-.083.058l-.61-.35-.61.35c-.043.025-.095-.012-.084-.057l.162-.66-.539-.445c-.037-.03-.017-.09.032-.093l.71-.058.277-.625c.02-.043.084-.043.103 0zM3.873 8.654l.278.625.71.058c.049.004.069.062.032.093l-.539.444.161.66c.012.047-.04.083-.083.058l-.61-.35-.61.35c-.043.025-.095-.012-.084-.057l.162-.661-.539-.444c-.037-.03-.017-.09.032-.093l.71-.058.277-.625c.02-.043.084-.043.103 0zM3.873 4.838l.278.625.71.058c.049.004.069.062.032.093l-.539.444.161.66c.012.046-.04.083-.083.058l-.61-.35-.61.35c-.043.024-.095-.012-.084-.057l.162-.661-.539-.444c-.037-.03-.017-.09.032-.093l.71-.058.277-.625c.02-.043.084-.043.103 0z"/>
    </g>
</svg>
