<svg xmlns="http://www.w3.org/2000/svg" width="27" height="25" viewBox="0 0 27 25">
    <g fill="#FFF" fill-rule="nonzero">
        <path d="M26.462 8.886h-.36c-.351-1.79-2.153-4.94-2.95-6.275A1.432 1.432 0 0 0 22.347 0a1.432 1.432 0 1 0-.805 2.611c-.798 1.335-2.6 4.485-2.95 6.275h-.36a.539.539 0 0 0-.538.54c0 2.577 2.087 4.674 4.653 4.674C24.913 14.1 27 12.003 27 9.426c0-.298-.24-.54-.538-.54zM22.347 1.08a.35.35 0 0 1 0 .702.35.35 0 0 1 0-.702zm-.001 2.283c.91 1.543 2.316 4.114 2.661 5.523h-5.32c.327-1.32 1.592-3.722 2.659-5.523zm0 9.656a3.588 3.588 0 0 1-3.536-3.053h7.074a3.588 3.588 0 0 1-3.537 3.053z"/>
        <path d="M18.287 21.82h-1.422V20.45c0-.299-.24-.54-.537-.54h-1.366V4.818c.351-.35.578-.826.604-1.355l2.275-.491a.54.54 0 0 0-.227-1.057l-2.28.493a2.042 2.042 0 0 0-1.806-1.098A2.047 2.047 0 0 0 11.49 3.24L5.804 4.47a1.422 1.422 0 0 0-2.576.842c0 .489.246.922.62 1.18-.797 1.334-2.599 4.485-2.95 6.274h-.36a.539.539 0 0 0-.538.54c0 2.578 2.087 4.674 4.653 4.674 2.566 0 4.653-2.096 4.653-4.673 0-.299-.24-.54-.537-.54h-.36c-.352-1.79-2.153-4.94-2.95-6.275.32-.222.546-.57.604-.974l5.65-1.22c.1.193.229.369.381.52v15.09h-1.366a.539.539 0 0 0-.537.54v1.373H8.769a.539.539 0 0 0-.538.54v2.024c0 .299.24.54.538.54h9.518a.539.539 0 0 0 .538-.54v-2.024c0-.299-.24-.54-.538-.54zM4.653 4.96a.35.35 0 0 1 0 .703.35.35 0 0 1 0-.702zm0 11.94a3.588 3.588 0 0 1-3.537-3.053H8.19A3.588 3.588 0 0 1 4.653 16.9zm2.66-4.134H1.995c.327-1.32 1.591-3.721 2.658-5.522.91 1.543 2.316 4.113 2.662 5.522zm6.215-10.375c.532 0 .965.435.965.97 0 .534-.433.97-.965.97a.968.968 0 0 1-.965-.97c0-.535.433-.97.965-.97zm.358 2.988v14.53h-.716V5.378a2.03 2.03 0 0 0 .716 0zm-2.62 15.61h4.524v.831h-4.524v-.831zm6.483 2.856H9.307v-.944h8.442v.944zM20.325 1.917a.538.538 0 0 0-.64-.415l-.391.085a.54.54 0 0 0 .226 1.056l.392-.085a.54.54 0 0 0 .413-.641z"/>
    </g>
</svg>
