<svg xmlns="http://www.w3.org/2000/svg" width="23" height="14" viewBox="0 0 23 14">
    <path fill="#FFF" fill-rule="nonzero" d="M19.448 6.296c1.962.01 3.548 1.669 3.552 3.714v2.091c0 .22-.171.4-.383.4h-6.069v1.1c0 .22-.171.399-.383.399h-9.33a.391.391 0 0 1-.383-.399v-1.1H.382A.39.39 0 0 1 0 12.103V10.01C.004 7.96 1.597 6.3 3.562 6.296h2.959c.61 0 1.212.164 1.744.478A3.65 3.65 0 0 1 9.413 7.85c.202-.037.407-.055.612-.055h2.96c.206 0 .41.018.613.055a3.654 3.654 0 0 1 1.148-1.076 3.422 3.422 0 0 1 1.744-.478h2.958zM6.492 11.152c.128-1.347.946-2.515 2.137-3.054a2.87 2.87 0 0 0-.742-.63 2.683 2.683 0 0 0-1.366-.374H3.562C2.02 7.098.77 8.4.765 10.01v1.692h5.727v-.352-.198zm9.283.358v-.187c-.016-.06-.016-.121-.016-.182-.183-1.452-1.368-2.54-2.773-2.545h-2.961l-.077.044c-1.21.005-2.28.816-2.66 2.014l-.018.066-.026.1-.016.065v2.32h8.547V11.51zm6.47.195V10.01c-.004-1.609-1.254-2.912-2.797-2.916h-2.96c-.48-.001-.95.128-1.368.374-.22.185-.413.404-.572.65a3.682 3.682 0 0 1 1.942 2.12l.037.108v.135l.018.069v1.155h5.7zM6.945.828c.505.527.788 1.242.787 1.987-.001 1.551-1.209 2.808-2.697 2.806-1.488 0-2.693-1.26-2.691-2.811C2.344 1.258 3.552 0 5.04.003a2.63 2.63 0 0 1 1.905.825zm-.54 3.404a2.05 2.05 0 0 0 .564-1.423c0-.533-.203-1.045-.565-1.422a1.874 1.874 0 0 0-2.728 0 2.073 2.073 0 0 0 0 2.845 1.874 1.874 0 0 0 2.728 0zM17.972 0c1.488.001 2.693 1.26 2.691 2.812 0 1.551-1.208 2.808-2.696 2.807a2.63 2.63 0 0 1-1.905-.826 2.871 2.871 0 0 1-.787-1.986C15.277 1.255 16.485-.001 17.973 0zm1.362 4.23a2.073 2.073 0 0 0 0-2.844 1.874 1.874 0 0 0-2.729 0 2.05 2.05 0 0 0-.565 1.423c0 .534.204 1.045.566 1.422a1.874 1.874 0 0 0 2.728 0zm-5.928-1.912a2.892 2.892 0 0 1 .006 3.97 2.614 2.614 0 0 1-3.806.006A2.892 2.892 0 0 1 9.6 2.325a2.63 2.63 0 0 1 1.905-.825c.713 0 1.397.294 1.902.818zm-1.902 4.005c1.065 0 1.929-.9 1.93-2.011a2.05 2.05 0 0 0-.565-1.423 1.89 1.89 0 0 0-1.364-.59c-1.065 0-1.93.9-1.93 2.012 0 1.11.863 2.011 1.929 2.012z"/>
</svg>
