<svg xmlns="http://www.w3.org/2000/svg" width="18" height="16" viewBox="0 0 18 16">
    <path fill="#FFF" fill-rule="nonzero" d="M11.092 13.711h1.345c.337 0 .688.029 1.022-.01-.057.008-.113.014-.17.023.123-.017.245-.05.36-.094l-.154.061a1.493 1.493 0 0 0 .281-.153c.053-.035-.132.108-.053.037l.083-.074c.03-.028.055-.06.085-.09.05-.052-.096.129-.04.05a1.42 1.42 0 0 0 .151-.259l-.064.146c.049-.112.08-.226.098-.344l-.024.163c.007-.057.011-.114.011-.174.002-.287 0-.575 0-.862v-1.862-2.121V6.51c0-.394.004-.785-.049-1.177l.024.163a5.231 5.231 0 0 0-.39-1.38l.064.146a5.347 5.347 0 0 0-.692-1.156c-.074-.098.094.11.015.016-.021-.024-.04-.049-.062-.073a5.485 5.485 0 0 0-.736-.716c-.058-.047-.117-.092-.175-.137-.049-.036.081.066.075.055-.007-.01-.034-.024-.045-.032-.025-.019-.053-.037-.079-.055a5.939 5.939 0 0 0-1.117-.6l.153.061a5.93 5.93 0 0 0-1.44-.373l.17.022a5.984 5.984 0 0 0-1.48 0l.17-.022a5.84 5.84 0 0 0-1.44.373l.153-.06a5.75 5.75 0 0 0-1.207.662c-.102.071.115-.09.017-.014l-.077.059-.16.13a5.47 5.47 0 0 0-.587.575c-.049.055-.095.113-.142.168-.039.047.068-.078.057-.072-.01.006-.025.033-.034.043l-.057.076a5.51 5.51 0 0 0-.626 1.07l.064-.147A5.313 5.313 0 0 0 4 5.496l.024-.163a6.757 6.757 0 0 0-.05.923c.004.032.006.064.007.097.002.114 0 .228 0 .342v3.884c-.004.626-.506 1.12-1.16 1.138-.357.01-.624-.288-.638-.612h.638a.52.52 0 0 0 .503-.37c.081.103.13.231.138.368.015.33-.305.612-.639.612H1.691c-.26 0-.53.02-.785-.029-.554-.104-.903-.606-.905-1.124v-.46V6.65c0-.1-.002-.202 0-.302.017-.64.547-1.114 1.209-1.114.514 0 1.03-.004 1.547 0 .106-.725.34-1.423.705-2.07.804-1.43 2.23-2.515 3.863-2.95 1.669-.444 3.51-.195 4.98.684 1.433.857 2.504 2.264 2.855 3.855.035.16.062.32.082.481h.007c.524 0 1.05-.004 1.573 0 .651.004 1.164.494 1.177 1.118.002.114 0 .228 0 .342v3.884c-.004.626-.507 1.12-1.16 1.138-.358.01-.624-.288-.638-.612h.638a.52.52 0 0 0 .503-.368c.08.103.129.23.136.368.014.33-.305.612-.639.612h-1.13c-.132 0-.269.005-.405.003v1.255c-.002.33-.085.647-.244.94-.245.445-.684.771-1.177.928a2.393 2.393 0 0 1-.733.088h-2.055c-.05.12-.113.233-.192.337-.34.446-.85.715-1.433.724a.636.636 0 0 1-.638-.612h.638c.224 0 .432-.065.607-.175.018.056.03.114.032.175.015.33-.304.612-.639.612-.604 0-1.268.075-1.813-.225-.43-.238-.764-.67-.84-1.144a1.657 1.657 0 0 1 .459-1.464c.328-.33.796-.508 1.266-.51.224-.002.447 0 .67 0 .32 0 .627.014.927.134.432.177.78.512.953.928z"/>
</svg>
