<svg xmlns="http://www.w3.org/2000/svg" width="31" height="25" viewBox="0 0 31 25">
    <path fill="#FFF" fill-rule="nonzero" d="M31 2.96a13.328 13.328 0 0 1-3.662.996A6.281 6.281 0 0 0 30.134.469a12.759 12.759 0 0 1-4.03 1.527A6.39 6.39 0 0 0 21.462 0c-3.519 0-6.351 2.835-6.351 6.31 0 .5.042.98.147 1.438a18.034 18.034 0 0 1-13.1-6.598 6.315 6.315 0 0 0-.87 3.188 6.305 6.305 0 0 0 2.823 5.243 6.312 6.312 0 0 1-2.871-.777v.07c0 3.064 2.203 5.61 5.092 6.197a6.388 6.388 0 0 1-1.666.208 5.66 5.66 0 0 1-1.204-.108 6.41 6.41 0 0 0 5.939 4.394 12.83 12.83 0 0 1-7.88 2.69C1 22.256.5 22.234 0 22.17 2.815 23.971 6.152 25 9.75 25c11.694 0 18.088-9.615 18.088-17.95 0-.279-.01-.548-.023-.815A12.627 12.627 0 0 0 31 2.96z"/>
</svg>
