<?xml version="1.0" encoding="UTF-8"?>
<svg width="20px" height="15px" viewBox="0 0 20 15" version="1.1" xmlns="http://www.w3.org/2000/svg" xmlns:xlink="http://www.w3.org/1999/xlink">
    <!-- Generator: Sketch 54 (76480) - https://sketchapp.com -->
    <title>withdraw</title>
    <desc>Created with Sketch.</desc>
    <g id="Symbols" stroke="none" stroke-width="1" fill="none" fill-rule="evenodd">
        <g id="deposit-withdraw" transform="translate(-183.000000, -10.000000)" fill="#FFFFFF" fill-rule="nonzero">
            <path d="M202.94593,18.6655163 C203.044945,18.846288 202.989946,19.0798305 202.823018,19.1871325 L196.444614,23.1004433 C196.392075,23.1327053 196.332772,23.1497404 196.272414,23.1499307 C196.20661,23.1501686 196.142079,23.1303737 196.086158,23.0928299 L183.164178,14.4058889 C183.110014,14.3686781 183.066218,14.3161454 183.037664,14.2539055 C182.951213,14.065663 183.022026,13.8371645 183.195806,13.7435191 L189.588268,10.0509982 C189.696991,9.9830006 189.830972,9.9830006 189.939695,10.0509982 L202.844104,18.5323762 L202.823018,18.5323762 C202.873624,18.5649236 202.915883,18.6106995 202.94593,18.6655163 Z M196.2935,22.3390988 L201.954993,18.8483341 L189.74641,10.8123427 L184.063832,14.1051578 L196.2935,22.3390988 Z M202.953046,20.5194854 C203.050084,20.7023984 202.991879,20.9358932 202.823018,21.0410064 L196.444614,24.9505105 C196.392075,24.9827725 196.332772,24.9998075 196.272414,24.9999979 C196.20661,25.0002358 196.142079,24.9804408 196.086158,24.942897 L183.164178,16.255956 C182.999183,16.1424205 182.950422,15.9055472 183.055235,15.7268216 C183.160049,15.548096 183.378724,15.4952777 183.543719,15.6088132 L196.297014,24.1853592 L202.492677,20.3786366 L202.471591,20.3786366 C202.640452,20.2735235 202.856009,20.3365723 202.953046,20.5194854 Z M183.543719,17.4588804 C183.433723,17.3831901 183.433723,17.3831901 183.543719,17.4588804 Z M195.022739,14.5293218 C195.144245,14.6932488 195.119997,14.932882 194.968619,15.0644994 L194.585564,15.4451717 C194.628877,15.5138831 194.668764,15.5850212 194.705049,15.6583482 C194.78513,15.8189919 194.840919,15.9924833 194.87022,16.1722557 C194.896752,16.3116294 194.896752,16.4554283 194.87022,16.5948019 C194.846806,16.7039597 194.794267,16.8032676 194.719106,16.8803061 C194.649348,16.949303 194.556878,16.984991 194.462564,16.9792809 C194.355554,16.9641016 194.258385,16.9039078 194.191965,16.8117851 C194.132398,16.7450723 194.097431,16.6570419 194.093565,16.5643482 C194.091633,16.4468632 194.101033,16.3294734 194.12168,16.2141297 C194.138724,16.1109199 194.138724,16.0051882 194.12168,15.9019784 L193.53831,16.4691801 L193.53831,16.4920204 C193.656917,16.7212803 193.748991,16.9654816 193.812424,17.2191044 C193.858461,17.402874 193.864479,17.5957796 193.829995,17.7824994 C193.795072,17.9479967 193.712662,18.0972678 193.594539,18.2088523 C193.258486,18.5595942 192.749532,18.6293048 192.343458,18.3801548 C192.183866,18.2872232 192.036178,18.1720223 191.904174,18.0375498 L191.507061,18.4182221 C191.442091,18.4803192 191.358231,18.5141991 191.271605,18.5133901 L191.278633,18.50197 C191.176719,18.5029216 191.079462,18.4559086 191.012032,18.3731124 C190.883673,18.2154189 190.897598,17.9748341 191.043177,17.8357935 L191.447318,17.4551212 C191.357616,17.3137491 191.28553,17.1601478 191.232948,16.9983145 C191.156907,16.7824734 191.135075,16.5486454 191.169691,16.3207179 C191.196092,16.1476548 191.273801,15.9886289 191.39109,15.8677179 C191.461727,15.7977218 191.555646,15.7619862 191.651146,15.7687431 C191.751303,15.7738822 191.844651,15.8251302 191.907688,15.9095919 C191.963257,15.9692622 191.99594,16.0494889 191.999059,16.1341885 C191.995281,16.2215052 191.978676,16.3075847 191.949859,16.3892389 C191.888843,16.5626351 191.870656,16.750259 191.897145,16.9336003 C191.902724,16.9606756 191.909752,16.9873702 191.918231,17.0135414 L192.621085,16.3321381 C192.55159,16.1762528 192.490574,16.0160849 192.438343,15.852491 C192.374427,15.6547318 192.354,15.4436014 192.3786,15.235802 C192.407242,15.0381379 192.500853,14.8583178 192.642171,14.7295079 C192.7787,14.5976525 192.949099,14.5139522 193.130655,14.4896843 C193.33624,14.4638462 193.544372,14.5007714 193.731595,14.5962726 C193.874934,14.6685527 194.007554,14.7634829 194.125194,14.87797 L194.501221,14.4972978 C194.509963,14.4879237 194.519144,14.4790255 194.52872,14.4706983 C194.680054,14.3390809 194.901277,14.3653473 195.022739,14.5293218 Z M192.86357,17.6263762 C192.969569,17.5357762 193.02202,17.3901215 193.000627,17.2457039 C192.986394,17.1716632 192.96645,17.0990975 192.940884,17.0287207 L192.346972,17.588309 C192.407022,17.6320387 192.473618,17.6642531 192.543771,17.683477 C192.652582,17.7220201 192.771935,17.7007024 192.86357,17.6263762 Z M193.211483,15.7610821 L193.671853,15.2966619 C193.639346,15.2768194 193.605213,15.2602602 193.569939,15.2471746 C193.468113,15.2067757 193.354118,15.2285692 193.271226,15.3042754 C193.198041,15.3732722 193.163381,15.4786233 193.179855,15.5821661 C193.184423,15.6428834 193.19501,15.7028392 193.211483,15.7610821 Z" id="withdraw"></path>
        </g>
    </g>
</svg>