<svg xmlns="http://www.w3.org/2000/svg" width="19" height="19" viewBox="0 0 19 19">
    <path fill="#FFF" fill-rule="nonzero" d="M17.997 7.96c.542.09.935.556.928 1.105v1.595c0 .549-.394 1.014-.935 1.105l-1.273.212a7.132 7.132 0 0 1-.51 1.234l.749 1.053a1.12 1.12 0 0 1-.121 1.443l-1.128 1.128c-.212.212-.493.33-.792.33-.235 0-.462-.073-.651-.209l-1.049-.75a7.183 7.183 0 0 1-1.234.512l-.216 1.272c-.09.541-.557.935-1.106.935H9.062a1.119 1.119 0 0 1-1.106-.935l-.212-1.272a7.163 7.163 0 0 1-1.196-.493l-1.064.758a1.111 1.111 0 0 1-1.439-.121l-1.128-1.129a1.116 1.116 0 0 1-.122-1.442l.746-1.038a7.007 7.007 0 0 1-.518-1.23l-1.288-.22A1.119 1.119 0 0 1 .8 10.697V9.103c0-.549.394-1.014.935-1.105l1.257-.212c.129-.428.296-.84.504-1.238l-.757-1.064a1.12 1.12 0 0 1 .12-1.443l1.133-1.128c.208-.212.492-.33.791-.33.235 0 .462.072.651.209l1.042.75a7.006 7.006 0 0 1 1.23-.52l.22-1.287C8.016 1.194 8.482.8 9.03.8h1.594c.55 0 1.015.394 1.106.935l.212 1.257c.443.133.87.31 1.28.527l1.052-.75a1.111 1.111 0 0 1 1.439.121l1.128 1.128c.39.387.44.996.122 1.443l-.75 1.049c.208.394.379.806.511 1.234l1.272.216zm-.087 2.7h.004V9.065c0-.049-.034-.09-.083-.098l-1.59-.269a.503.503 0 0 1-.41-.375 6.061 6.061 0 0 0-.658-1.586.512.512 0 0 1 .022-.557l.936-1.314a.103.103 0 0 0-.012-.128l-1.128-1.129a.101.101 0 0 0-.072-.03.113.113 0 0 0-.057.02l-1.306.938a.512.512 0 0 1-.557.023 6.146 6.146 0 0 0-1.624-.667.512.512 0 0 1-.379-.412l-.265-1.58a.098.098 0 0 0-.098-.082H9.039c-.05 0-.09.034-.099.083l-.272 1.601a.519.519 0 0 1-.375.41 6.004 6.004 0 0 0-1.583.666.518.518 0 0 1-.56-.023l-1.306-.931a.093.093 0 0 0-.057-.02.096.096 0 0 0-.072.03l-1.128 1.13a.103.103 0 0 0-.012.128l.943 1.325a.506.506 0 0 1 .027.553 6.055 6.055 0 0 0-.648 1.59.512.512 0 0 1-.413.379l-1.578.265a.098.098 0 0 0-.084.098v1.594c0 .05.034.091.084.099l1.601.272a.519.519 0 0 1 .41.375c.143.557.37 1.09.665 1.583a.518.518 0 0 1-.022.56l-.932 1.307a.103.103 0 0 0 .012.128l1.128 1.129c.027.026.057.03.072.03a.113.113 0 0 0 .057-.019l1.325-.943a.499.499 0 0 1 .295-.094c.087 0 .178.022.258.068.488.28 1.01.496 1.552.636.193.049.34.208.375.409l.265 1.59c.008.05.05.083.098.083h1.594c.05 0 .091-.034.099-.083l.269-1.59a.503.503 0 0 1 .375-.41 6.061 6.061 0 0 0 1.586-.658.512.512 0 0 1 .557.023l1.313.935a.093.093 0 0 0 .057.019.096.096 0 0 0 .072-.03l1.128-1.129a.103.103 0 0 0 .012-.128l-.935-1.318a.512.512 0 0 1-.023-.557c.295-.496.515-1.03.659-1.586a.508.508 0 0 1 .409-.375l1.59-.265a.098.098 0 0 0 .083-.098zM9.864 5.95a3.914 3.914 0 0 1 3.912 3.91 3.914 3.914 0 0 1-3.912 3.912 3.914 3.914 0 0 1-3.91-3.911 3.914 3.914 0 0 1 3.91-3.912zm0 6.8a2.89 2.89 0 0 0 2.89-2.89 2.89 2.89 0 0 0-2.89-2.888A2.89 2.89 0 0 0 6.975 9.86a2.89 2.89 0 0 0 2.89 2.889z"/>
</svg>
