<svg xmlns="http://www.w3.org/2000/svg" width="18" height="19" viewBox="0 0 18 19">
    <g fill="#FFF" fill-rule="nonzero">
        <path d="M15.088.075H2.637C1.472.075.525 1.033.525 2.21v13.622a1.1 1.1 0 0 0 1.092 1.105H6.4a.366.366 0 0 0 .364-.368.366.366 0 0 0-.364-.369H1.617a.366.366 0 0 1-.364-.368V2.21c0-.771.62-1.399 1.384-1.399h10.858a2.14 2.14 0 0 0-.519 1.4v11.864c0 .34-.273.616-.609.616a.61.61 0 0 1-.578-.421l-.548-1.665a1.136 1.136 0 0 0-1.078-.786c-.627 0-1.137.516-1.137 1.15v.286H7.14a.366.366 0 0 0-.364.368c0 .204.163.368.364.368h1.887v1.832c0 .544.105 1.074.312 1.575l.536 1.3a.364.364 0 0 0 .476.199.37.37 0 0 0 .196-.482l-.536-1.3a3.375 3.375 0 0 1-.255-1.292V12.97a.408.408 0 1 1 .795-.13l.549 1.664c.182.553.692.924 1.268.924.738 0 1.338-.606 1.338-1.352V7.763l.486.49a4.632 4.632 0 0 1 1.346 3.283v3.913a6.993 6.993 0 0 1-.656 2.95.37.37 0 0 0 .173.49.362.362 0 0 0 .485-.175 7.74 7.74 0 0 0 .726-3.265v-3.913a5.368 5.368 0 0 0-1.56-3.803l-1-1.01V6.37h2.403A1.1 1.1 0 0 0 17.2 5.266V2.21c0-1.177-.947-2.135-2.112-2.135zm1.384 5.191a.367.367 0 0 1-.364.368h-2.403V2.21c0-.771.62-1.399 1.383-1.399s1.384.628 1.384 1.4v3.055z"/>
        <path d="M7.989 16.2a.365.365 0 0 0-.364.369.365.365 0 0 0 .364.368.365.365 0 0 0 .364-.368.365.365 0 0 0-.364-.368zM5.537 2.8a.733.733 0 0 0-.728-.737H3.207a.733.733 0 0 0-.728.736v1.62c0 .406.326.737.728.737H4.81c.402 0 .728-.33.728-.737V2.8zM4.81 4.42H3.207V2.8H4.81v1.62zM5.537 7.217a.733.733 0 0 0-.728-.736H3.207a.733.733 0 0 0-.728.736v1.62c0 .406.326.737.728.737H4.81c.402 0 .728-.33.728-.737v-1.62zm-.728 1.62H3.207v-1.62H4.81v1.62zM4.81 10.899H3.206a.733.733 0 0 0-.728.736v1.62c0 .406.326.736.728.736H4.81c.402 0 .728-.33.728-.736v-1.62a.733.733 0 0 0-.728-.736zm0 2.356H3.206v-1.62H4.81v1.62zM11.314 5.156a.366.366 0 0 0 .364-.368.366.366 0 0 0-.364-.369h-2.51a.366.366 0 0 0-.364.369c0 .203.163.368.364.368h2.51zM7.14 5.156a.365.365 0 0 0 .363-.368.365.365 0 0 0-.364-.368.364.364 0 0 0-.364.368.364.364 0 0 0 .364.368zM7.14 9.574h4.174a.366.366 0 0 0 .364-.369.366.366 0 0 0-.364-.368H7.139a.366.366 0 0 0-.364.368c0 .204.163.369.364.369z"/>
    </g>
</svg>
