<svg xmlns="http://www.w3.org/2000/svg" width="34" height="35" viewBox="0 0 34 35">
    <g fill="#FFF" fill-rule="nonzero">
        <path d="M13.357 18C15.37 18 17 19.613 17 21.6v9.6c0 1.987-1.63 3.6-3.643 3.6H3.643C1.632 34.8 0 33.187 0 31.2v-9.6C0 19.613 1.632 18 3.643 18h9.714zM7.21 29.776l.153.57c.05.183.118.35.205.5.087.15.21.273.366.37.156.097.347.145.574.145.3 0 .534-.075.704-.225.17-.15.286-.317.349-.5s.144-.47.244-.86l1.533-6.02v6.522c0 .361.083.632.248.812a.82.82 0 0 0 .633.271c.273 0 .492-.09.655-.27.163-.181.245-.452.245-.813v-7.476c0-.413-.11-.691-.326-.835-.218-.144-.511-.216-.881-.216h-.6c-.36 0-.623.032-.786.097a.656.656 0 0 0-.362.348c-.078.167-.167.44-.267.818l-1.39 5.176-1.389-5.176c-.1-.378-.189-.65-.267-.818a.656.656 0 0 0-.362-.348c-.163-.065-.425-.097-.786-.097h-.6c-.37 0-.663.072-.88.216-.218.144-.327.422-.327.835v7.476c0 .366.083.637.248.816a.832.832 0 0 0 .64.267c.269 0 .485-.09.648-.27.163-.181.245-.452.245-.813v-6.522l1.533 6.02zM32.516 8.255l-6.87-6.789a3.674 3.674 0 0 0-5.15 0l-6.87 6.789a3.57 3.57 0 0 0 0 5.09l6.87 6.789a3.674 3.674 0 0 0 5.15 0l6.87-6.789a3.57 3.57 0 0 0 0-5.09zm-8.157 9.758a1.838 1.838 0 0 1-2.576 0 1.786 1.786 0 0 1 0-2.546 1.838 1.838 0 0 1 2.576 0 1.786 1.786 0 0 1 0 2.546zm0-5.941a1.836 1.836 0 0 1-2.576 0 1.784 1.784 0 0 1 0-2.545 1.836 1.836 0 0 1 2.576 0 1.784 1.784 0 0 1 0 2.545zm0-5.939a1.838 1.838 0 0 1-2.576 0 1.786 1.786 0 0 1 0-2.546 1.838 1.838 0 0 1 2.576 0 1.786 1.786 0 0 1 0 2.546zm-6.072 6a1.838 1.838 0 0 1-2.575 0 1.786 1.786 0 0 1 0-2.546 1.838 1.838 0 0 1 2.575 0 1.786 1.786 0 0 1 0 2.546zm12.143 0a1.838 1.838 0 0 1-2.575 0 1.786 1.786 0 0 1 0-2.546 1.838 1.838 0 0 1 2.575 0 1.786 1.786 0 0 1 0 2.546z"/>
    </g>
</svg>
