<svg xmlns="http://www.w3.org/2000/svg" width="14" height="9" viewBox="0 0 14 9">
    <path fill="#FFF" fill-rule="nonzero" d="M1.304 9.01a1.275 1.275 0 0 0 1.204-1.667l2.007-1.692c.52.29 1.17.166 1.55-.295l1.584.535a1.273 1.273 0 0 0 1.304 1.153 1.275 1.275 0 0 0 1.225-1.24 1.27 1.27 0 0 0-.147-.584l2.084-2.459c.501.27 1.12.17 1.51-.248a1.29 1.29 0 0 0 .167-1.54 1.258 1.258 0 0 0-1.423-.57c-.548.154-.926.66-.924 1.235.002.124.022.247.06.366l-2.196 2.59a1.216 1.216 0 0 0-1.357.38L6.367 4.44a1.278 1.278 0 0 0-.791-1.116 1.254 1.254 0 0 0-1.335.253c-.358.34-.49.858-.339 1.33L1.897 6.602a1.24 1.24 0 0 0-.593-.156c-.7 0-1.268.574-1.268 1.282 0 .708.568 1.282 1.268 1.282z"/>
</svg>
