<?xml version="1.0" encoding="UTF-8"?>
<svg width="14px" height="14px" viewBox="0 0 14 14" version="1.1" xmlns="http://www.w3.org/2000/svg" xmlns:xlink="http://www.w3.org/1999/xlink">
    <!-- Generator: Sketch 54 (76480) - https://sketchapp.com -->
    <title>mix</title>
    <desc>Created with Sketch.</desc>
    <g id="Symbols" stroke="none" stroke-width="1" fill="none" fill-rule="evenodd">
        <g id="header" transform="translate(-1716.000000, -14.000000)" fill="#FFFFFF" fill-rule="nonzero">
            <g id="avatar" transform="translate(1706.000000, 4.000000)">
                <path d="M23.2897906,15.2848231 L18.7151769,10.7102094 C17.768231,9.76326354 16.231769,9.76326354 15.2848231,10.7102094 L10.7102094,15.2848231 C9.76326354,16.231769 9.76326354,17.768231 10.7102094,18.7151769 L15.2848231,23.2897906 C16.231769,24.2367365 17.768231,24.2367365 18.7151769,23.2897906 L23.2897906,18.7151769 C24.2367365,17.768231 24.2367365,16.231769 23.2897906,15.2848231 Z M17.8571841,21.8608809 C17.3833069,22.3339495 16.6158845,22.3339495 16.1420072,21.8608809 C15.66813,21.3870036 15.66813,20.6187726 16.1420072,20.1448953 C16.6158845,19.6718267 17.3833069,19.6718267 17.8571841,20.1448953 C18.3310614,20.6187726 18.3310614,21.3870036 17.8571841,21.8608809 Z M17.8571841,17.8571841 C17.3833069,18.3310614 16.6158845,18.3310614 16.1420072,17.8571841 C15.66813,17.3833069 15.66813,16.6158845 16.1420072,16.1420072 C16.6158845,15.66813 17.3833069,15.66813 17.8571841,16.1420072 C18.3310614,16.6158845 18.3310614,17.3841155 17.8571841,17.8571841 Z M17.8571841,13.8551047 C17.3833069,14.3281733 16.6158845,14.3281733 16.1420072,13.8551047 C15.66813,13.3812274 15.66813,12.6129964 16.1420072,12.1391191 C16.6158845,11.6660505 17.3833069,11.6660505 17.8571841,12.1391191 C18.3310614,12.6129964 18.3310614,13.3812274 17.8571841,13.8551047 Z M13.8138628,17.898426 C13.3399856,18.3714946 12.5725632,18.3714946 12.0986859,17.898426 C11.6248087,17.4245487 11.6248087,16.6563177 12.0986859,16.1824404 C12.5725632,15.7093718 13.3399856,15.7093718 13.8138628,16.1824404 C14.2877401,16.6563177 14.2877401,17.4245487 13.8138628,17.898426 Z M21.9005054,17.898426 C21.4266282,18.3714946 20.6592058,18.3714946 20.1853285,17.898426 C19.7114513,17.4245487 19.7114513,16.6563177 20.1853285,16.1824404 C20.6592058,15.7093718 21.4266282,15.7093718 21.9005054,16.1824404 C22.3743827,16.6563177 22.3743827,17.4245487 21.9005054,17.898426 Z" id="mix"></path>
            </g>
        </g>
    </g>
</svg>