<svg xmlns="http://www.w3.org/2000/svg" width="28" height="28" viewBox="0 0 28 28">
    <g fill="none" fill-rule="nonzero">
        <circle cx="13.846" cy="13.846" r="13.171" stroke="#FFF" stroke-width="1.351"/>
        <path fill="#FFF" d="M18.211 12.589c.197-1.349-.805-2.074-2.174-2.557l.445-1.827-1.085-.277-.432 1.779c-.285-.074-.578-.142-.87-.21l.437-1.79-1.084-.277-.445 1.826c-.236-.056-.468-.11-.692-.167v-.006L10.817 8.7l-.288 1.187s.805.19.788.201c.439.113.518.41.505.647l-.506 2.081c.03.008.069.02.113.037l-.115-.029-.709 2.915c-.054.137-.19.342-.497.264.01.016-.788-.201-.788-.201l-.539 1.272 1.412.361c.262.068.52.138.772.205l-.448 1.847 1.083.277.444-1.827c.297.082.584.157.865.23l-.443 1.819 1.084.276.449-1.843c1.85.359 3.24.214 3.825-1.501.472-1.38-.023-2.178-.996-2.697.709-.167 1.242-.645 1.384-1.632zM15.5 16.102c-.335 1.324-2.605.608-3.342.429l.597-2.347c.736.18 3.096.538 2.745 1.918zm.678-3.411c-.29 1.347-2.087.662-2.669.494l.514-2.378c.582.167 2.458.48 2.155 1.884z"/>
    </g>
</svg>
