<svg xmlns="http://www.w3.org/2000/svg" width="21" height="21" viewBox="0 0 21 21">
    <g fill="none" fill-rule="nonzero">
        <path fill="#FFF" d="M20.979 13.638l-1.274-1.402-1.413 1.265a.383.383 0 0 0-.028.544.39.39 0 0 0 .549.028l.455-.407c-.52 3.574-3.81 6.136-7.456 5.752a.386.386 0 0 0-.082.766c.27.03.54.043.807.043 3.738 0 6.972-2.745 7.503-6.471l.362.399a.389.389 0 0 0 .549.028.383.383 0 0 0 .028-.545zM12.083 3.897l-1.243-1.43a.39.39 0 0 0-.548-.04.384.384 0 0 0-.04.544l.334.384c-4.097-.3-7.715 2.716-8.106 6.795a.387.387 0 0 0 .387.422c.198 0 .367-.15.386-.349.354-3.692 3.653-6.414 7.367-6.091l-.485.415a.383.383 0 0 0-.04.544.39.39 0 0 0 .548.04l1.44-1.234z"/>
        <path stroke="#FFF" stroke-width=".921" d="M6.534 16.043a2.353 2.353 0 0 0 1.313-2.105 2.363 2.363 0 0 0-2.37-2.351 2.363 2.363 0 0 0-2.368 2.351c0 .92.534 1.718 1.312 2.105-1.738.463-3.021 2.04-3.021 3.91v.385h8.155v-.385c0-1.87-1.283-3.447-3.02-3.91zM17.483 5.856a2.353 2.353 0 0 0 1.312-2.104A2.363 2.363 0 0 0 16.427 1.4a2.363 2.363 0 0 0-2.37 2.352c0 .92.535 1.718 1.313 2.104-1.738.464-3.021 2.04-3.021 3.91v.386h8.155v-.386c0-1.87-1.283-3.447-3.02-3.91z"/>
    </g>
</svg>
