<svg xmlns="http://www.w3.org/2000/svg" width="14" height="15" viewBox="0 0 14 15">
    <g fill="#FFF" fill-rule="nonzero">
        <path d="M5.502 7.667c.825 0 1.493.668 1.493 1.492v3.98c0 .824-.668 1.493-1.493 1.493H1.52A1.493 1.493 0 0 1 .027 13.14V9.16c0-.825.669-1.493 1.493-1.493h3.982zm-2.52 4.882l.063.236c.02.076.048.145.084.208a.433.433 0 0 0 .15.153c.064.04.142.06.235.06.123 0 .22-.03.289-.093a.493.493 0 0 0 .143-.207c.026-.076.059-.195.1-.357l.628-2.496v2.704c0 .15.034.262.102.337a.334.334 0 0 0 .26.112.342.342 0 0 0 .268-.112c.067-.075.1-.187.1-.337v-3.1c0-.17-.044-.286-.134-.346a.64.64 0 0 0-.36-.09h-.246a.938.938 0 0 0-.323.041.27.27 0 0 0-.148.144c-.032.07-.069.183-.11.34l-.57 2.146-.569-2.146a2.239 2.239 0 0 0-.11-.34.27.27 0 0 0-.147-.144.938.938 0 0 0-.323-.04h-.246a.64.64 0 0 0-.36.09c-.09.06-.134.174-.134.346v3.1c0 .15.034.263.101.337a.34.34 0 0 0 .262.111c.11 0 .2-.037.266-.112.067-.075.1-.187.1-.337v-2.704l.629 2.496zM13.356 3.626L10.54.812a1.494 1.494 0 0 0-2.111 0L5.613 3.626a1.492 1.492 0 0 0 0 2.11l2.816 2.815a1.494 1.494 0 0 0 2.111 0l2.816-2.814a1.492 1.492 0 0 0 0-2.11zm-3.344 4.046a.747.747 0 1 1-1.056-1.058.747.747 0 0 1 1.056 1.058zm0-2.463a.746.746 0 1 1-1.056-1.056.746.746 0 0 1 1.056 1.056zm0-2.462a.747.747 0 1 1-1.056-1.059.747.747 0 0 1 1.056 1.059zM7.523 5.234a.747.747 0 1 1-1.056-1.058.747.747 0 0 1 1.056 1.058zm4.978 0a.747.747 0 1 1-1.056-1.058.747.747 0 0 1 1.056 1.058z"/>
    </g>
</svg>
