<svg xmlns="http://www.w3.org/2000/svg" width="20" height="18" viewBox="0 0 20 18">
    <g fill="#FFF" fill-rule="nonzero">
        <path d="M19.909 8.212a1.48 1.48 0 0 0-1.473-1.021l-.143.005a1.672 1.672 0 0 0-1.107.477l-2.207 2.145a1.568 1.568 0 0 0-1.295-.689h-3.112a6.49 6.49 0 0 1-1.702-.222c-1.413-.384-2.76-.106-3.898.803-.48.383-.825.802-1.036 1.098a1.409 1.409 0 0 0-.82-.245 1.402 1.402 0 0 0-.986.421L.12 13.037a.38.38 0 0 0 .007.54l1.618 1.568a.396.396 0 0 0 .553-.004.38.38 0 0 0-.004-.543L.95 13.296l1.744-1.778a.618.618 0 0 1 .434-.186.616.616 0 0 1 .44.171L6.68 14.47a.599.599 0 0 1 .013.86l-1.714 1.727-.44-.413a.396.396 0 0 0-.553.014.38.38 0 0 0 .013.543l.721.675a.394.394 0 0 0 .55-.01l1.983-2a1.355 1.355 0 0 0 .3-1.463l.7-.08a8.67 8.67 0 0 1 .98-.056h4.735c.072 0 .146-.003.218-.009l.454-.037a2.658 2.658 0 0 0 1.783-.9l3.191-3.69c.341-.395.452-.925.296-1.419zm-.892.92l-3.19 3.69a1.868 1.868 0 0 1-1.252.633l-.455.037c-.05.004-.102.006-.153.006H9.23c-.356 0-.716.02-1.07.061l-1.13.13-2.503-2.372c.17-.248.483-.648.937-1.01.947-.757 2.022-.978 3.196-.659a7.28 7.28 0 0 0 1.911.25h3.112c.207 0 .408.084.552.23a.744.744 0 0 1 .199.377c-.001.035.003.07.013.103a.742.742 0 0 1-.167.513l-.012.015a.767.767 0 0 1-.597.281h-2.71a.388.388 0 0 0-.39.385c0 .212.175.384.39.384h2.71a1.55 1.55 0 0 0 1.207-.57l.012-.014a1.5 1.5 0 0 0 .34-.946l2.506-2.438a.887.887 0 0 1 .588-.254l.143-.005c.315-.013.6.185.694.48a.72.72 0 0 1-.145.694z"/>
        <path d="M3.12 12.143c-.585 0-1.06.467-1.06 1.04 0 .575.475 1.042 1.06 1.042.583 0 1.059-.467 1.059-1.041 0-.574-.476-1.041-1.06-1.041zm0 1.313a.275.275 0 0 1-.278-.272c0-.15.125-.272.277-.272.153 0 .277.122.277.272 0 .15-.124.272-.277.272zM9.3 11.474l-.02.005a.384.384 0 1 0 .18.748l.02-.004a.384.384 0 0 0 .29-.463.392.392 0 0 0-.47-.286zM3.07 15.542l-.021.005a.384.384 0 0 0-.291.462.39.39 0 0 0 .47.286l.02-.004a.384.384 0 0 0 .291-.462.392.392 0 0 0-.47-.287zM11.457 8.137c2.282 0 4.14-1.825 4.14-4.069 0-2.243-1.858-4.068-4.14-4.068a4.143 4.143 0 0 0-3.593 2.046 4.014 4.014 0 0 0-.547 2.022c0 2.244 1.857 4.069 4.14 4.069zM8.542 2.429a3.316 3.316 0 0 1 .844-.958 3.36 3.36 0 0 1 2.07-.702c1.852 0 3.358 1.48 3.358 3.3 0 1.819-1.506 3.299-3.357 3.299-1.851 0-3.358-1.48-3.358-3.3 0-.576.154-1.142.443-1.639z"/>
        <path d="M11.804 5.384a1.062 1.062 0 0 1-.502.125c-.264 0-.495-.306-.495-.654a.388.388 0 0 0-.391-.384.388.388 0 0 0-.391.384c0 .666.413 1.226.968 1.38.013.202.182.361.39.361a.388.388 0 0 0 .39-.377c.566-.144 1.053-.557 1.053-1.28 0-.866-.9-1.339-1.362-1.339-.006 0-.58-.05-.58-.41 0-.555.574-.57.58-.57.109 0 .241.063.345.165.05.05.056.055.056.262 0 .212.175.384.39.384a.388.388 0 0 0 .392-.385c0-.246 0-.524-.285-.804a1.38 1.38 0 0 0-.589-.347.388.388 0 0 0-.39-.362.388.388 0 0 0-.391.384v.025c-.427.156-.89.53-.89 1.247 0 .881.931 1.179 1.36 1.18.117.01.582.212.582.57 0 .21-.074.348-.24.445z"/>
    </g>
</svg>
