<svg xmlns="http://www.w3.org/2000/svg" width="18" height="16" viewBox="0 0 18 16">
    <g fill="#FFF" fill-rule="nonzero">
        <path d="M17.143 5.661h-.223c-.217-1.09-1.329-3.008-1.821-3.82a.869.869 0 0 0 .382-.72.877.877 0 0 0-.88-.871.869.869 0 1 0-.497 1.59c-.493.813-1.605 2.732-1.822 3.821h-.222a.33.33 0 0 0-.333.33c0 1.569 1.29 2.846 2.874 2.846 1.585 0 2.874-1.277 2.874-2.847a.33.33 0 0 0-.332-.329zM14.6.908c.12 0 .216.096.216.214a.215.215 0 0 1-.216.213.215.215 0 0 1-.216-.213c0-.118.097-.214.216-.214zm0 1.39c.562.94 1.43 2.505 1.643 3.363H12.96c.202-.803.983-2.266 1.642-3.363zm0 5.88a2.206 2.206 0 0 1-2.184-1.859h4.369A2.206 2.206 0 0 1 14.6 8.18z"/>
        <path d="M12.094 13.539h-.878v-.836a.33.33 0 0 0-.332-.329h-.844v-9.19a1.24 1.24 0 0 0 .374-.824l1.404-.3a.329.329 0 1 0-.14-.643l-1.407.3a1.263 1.263 0 0 0-2.374.506l-3.512.749a.882.882 0 0 0-1.591.513c0 .298.152.561.382.718-.492.813-1.604 2.732-1.821 3.822h-.223a.33.33 0 0 0-.332.329c0 1.57 1.29 2.846 2.874 2.846s2.874-1.277 2.874-2.846a.33.33 0 0 0-.333-.33h-.222c-.217-1.09-1.33-3.008-1.822-3.82a.872.872 0 0 0 .374-.593l3.49-.744c.06.118.14.225.234.317v9.19h-.843a.33.33 0 0 0-.332.33v.835h-.879a.33.33 0 0 0-.332.329V15.1a.33.33 0 0 0 .332.329h5.88a.33.33 0 0 0 .331-.33v-1.232a.33.33 0 0 0-.332-.33zM3.674 3.27c.119 0 .216.096.216.214a.215.215 0 0 1-.216.213.215.215 0 0 1-.216-.213c0-.118.097-.214.216-.214zm0 7.27a2.206 2.206 0 0 1-2.185-1.858h4.37a2.206 2.206 0 0 1-2.185 1.859zm1.643-2.516H2.032c.201-.804.982-2.267 1.641-3.364.562.94 1.43 2.505 1.644 3.364zm3.838-6.319c.329 0 .596.265.596.59 0 .326-.268.591-.596.591a.594.594 0 0 1-.596-.59c0-.326.267-.59.596-.59zm.22 1.82v8.848h-.441V3.526a1.271 1.271 0 0 0 .442 0zm-1.617 9.506h2.794v.507H7.758v-.507zm4.004 1.74H6.548v-.575h5.214v.575zM13.352 1.417a.332.332 0 0 0-.394-.252l-.242.051a.329.329 0 1 0 .14.644l.242-.052a.33.33 0 0 0 .254-.39z"/>
    </g>
</svg>
