<svg xmlns="http://www.w3.org/2000/svg" width="141" height="37" viewBox="0 0 141 37">
    <g fill="#FFF" fill-rule="nonzero">
        <path d="M57.555 26.061l-2.743-10.825v11.73c0 .648-.145 1.135-.437 1.46-.292.324-.679.486-1.161.486-.467 0-.848-.16-1.144-.48-.296-.321-.444-.81-.444-1.467V13.521c0-.742.195-1.242.584-1.5.389-.26.914-.389 1.575-.389h1.074c.646 0 1.115.058 1.406.174.292.116.508.324.648.626.14.301.3.792.479 1.472l2.485 9.306 2.486-9.306c.18-.68.339-1.17.479-1.472.14-.302.356-.51.647-.626.292-.116.76-.174 1.407-.174h1.073c.662 0 1.187.13 1.576.388.389.26.583.76.583 1.501v13.444c0 .65-.145 1.136-.437 1.46-.292.325-.683.487-1.173.487-.46 0-.836-.162-1.132-.486-.296-.325-.444-.812-.444-1.46v-11.73L62.2 26.061a21.775 21.775 0 0 1-.438 1.548c-.113.328-.32.627-.624.898-.304.27-.724.405-1.26.405-.405 0-.747-.087-1.028-.26a1.885 1.885 0 0 1-.653-.667 3.79 3.79 0 0 1-.368-.898c-.09-.328-.18-.67-.274-1.026zm17.097-8.217v9.144c0 .634-.152 1.113-.455 1.438-.303.324-.689.486-1.155.486-.467 0-.846-.166-1.138-.498-.292-.332-.438-.807-.438-1.426v-9.051c0-.626.146-1.097.438-1.414.292-.317.67-.475 1.138-.475.466 0 .852.158 1.155.475.303.317.455.757.455 1.321zm-1.575-3.268c-.444 0-.823-.135-1.138-.406-.315-.27-.473-.653-.473-1.147 0-.448.162-.817.484-1.107.323-.29.699-.435 1.127-.435.412 0 .778.132 1.097.394.319.263.478.646.478 1.148 0 .487-.155.867-.467 1.141-.31.275-.68.412-1.108.412zm11.775 13.027l-2.31-3.373-2.37 3.373c-.342.471-.632.807-.87 1.008-.236.2-.538.301-.904.301-.404 0-.748-.125-1.032-.376-.284-.251-.426-.54-.426-.864 0-.332.217-.807.653-1.425l2.883-4.103-2.556-3.419c-.444-.564-.665-1.055-.665-1.472 0-.324.132-.606.396-.846.265-.24.611-.36 1.04-.36.373 0 .682.105.927.314.245.208.53.537.858.985l2.065 2.805 2.008-2.805c.334-.464.624-.796.87-.997.244-.2.55-.301.915-.301.42 0 .769.118 1.045.353.276.236.414.52.414.852 0 .24-.056.47-.17.69-.112.22-.285.48-.519.782l-2.555 3.419 2.882 4.103c.452.641.677 1.124.677 1.448 0 .333-.14.619-.42.858-.28.24-.626.36-1.039.36a1.41 1.41 0 0 1-.927-.314c-.253-.208-.543-.54-.87-.996zm7.913-15.971h4.516c1.175 0 2.182.108 3.023.325a5.57 5.57 0 0 1 2.287 1.216c1.782 1.515 2.673 3.817 2.673 6.908 0 1.02-.09 1.95-.269 2.793a8.21 8.21 0 0 1-.828 2.278 7.085 7.085 0 0 1-1.436 1.813c-.459.41-.96.738-1.505.985a6.853 6.853 0 0 1-1.757.522c-.626.1-1.332.15-2.118.15h-4.516c-.63 0-1.105-.094-1.424-.283a1.322 1.322 0 0 1-.625-.8c-.097-.344-.145-.79-.145-1.339V13.741c0-.741.167-1.278.501-1.61.335-.333.876-.499 1.623-.499zm1.342 2.724v11.531h2.626c.575 0 1.027-.015 1.353-.046.327-.03.666-.108 1.016-.232a2.77 2.77 0 0 0 .91-.521c1.16-.974 1.739-2.65 1.739-5.03 0-1.677-.255-2.932-.765-3.767-.51-.834-1.137-1.366-1.884-1.593-.747-.228-1.65-.342-2.708-.342h-2.287zm17.167 3.488v9.144c0 .634-.152 1.113-.455 1.438-.304.324-.689.486-1.156.486-.466 0-.846-.166-1.137-.498-.292-.332-.438-.807-.438-1.426v-9.051c0-.626.146-1.097.438-1.414.291-.317.67-.475 1.137-.475.467 0 .852.158 1.156.475.303.317.455.757.455 1.321zm-1.576-3.268c-.443 0-.822-.135-1.137-.406-.316-.27-.473-.653-.473-1.147 0-.448.161-.817.484-1.107.323-.29.698-.435 1.126-.435.413 0 .778.132 1.097.394.32.263.479.646.479 1.148 0 .487-.156.867-.467 1.141-.311.275-.68.412-1.109.412zm16.292 10.419c0 .394-.118.815-.356 1.263-.237.448-.599.875-1.085 1.281-.486.406-1.099.732-1.838.98-.74.247-1.572.37-2.498.37-1.968 0-3.505-.57-4.61-1.71-1.104-1.139-1.657-2.667-1.657-4.583 0-1.298.253-2.445.759-3.442a5.424 5.424 0 0 1 2.194-2.312c.957-.545 2.1-.817 3.431-.817.825 0 1.581.12 2.27.359.689.24 1.272.548 1.75.927.48.379.845.782 1.098 1.211.252.429.379.829.379 1.2 0 .378-.142.699-.426.962a1.466 1.466 0 0 1-1.033.394c-.264 0-.484-.068-.66-.203-.174-.135-.37-.354-.589-.655-.389-.587-.795-1.028-1.22-1.321-.423-.294-.962-.44-1.616-.44-.941 0-1.7.364-2.275 1.095-.576.73-.864 1.728-.864 2.996 0 .595.074 1.141.222 1.64.148.498.362.923.642 1.274.28.352.618.619 1.015.8.397.182.833.272 1.307.272.638 0 1.185-.146 1.64-.44.455-.294.858-.742 1.208-1.344.194-.356.404-.634.63-.835.226-.2.502-.301.828-.301.39 0 .712.147.97.44.256.294.384.607.384.939zm11.67-1.738h-6.231c.007.718.153 1.352.437 1.9.284.549.662.962 1.132 1.24.471.279.99.418 1.558.418.382 0 .73-.045 1.045-.134.315-.089.62-.228.916-.417.296-.19.568-.392.817-.608.249-.217.572-.51.969-.881.163-.14.396-.209.7-.209.327 0 .591.09.793.267.203.177.304.429.304.753 0 .286-.113.62-.339 1.003-.225.382-.566.75-1.02 1.1-.456.352-1.028.644-1.716.876-.689.231-1.48.347-2.375.347-2.047 0-3.638-.58-4.773-1.738-1.136-1.16-1.704-2.731-1.704-4.717 0-.935.14-1.802.42-2.602.28-.8.688-1.485 1.225-2.057a5.316 5.316 0 0 1 1.984-1.316c.786-.305 1.657-.457 2.614-.457 1.245 0 2.313.26 3.204.782.89.521 1.558 1.196 2.001 2.022.444.827.666 1.67.666 2.527 0 .796-.23 1.311-.689 1.547-.46.236-1.105.354-1.937.354zm-6.231-1.797h5.777c-.078-1.082-.372-1.89-.882-2.428-.51-.537-1.18-.805-2.013-.805-.793 0-1.445.272-1.955.817-.51.544-.818 1.35-.927 2.416zM14.085 19.029c2.121 0 3.84 1.705 3.84 3.805v10.149c0 2.1-1.719 3.806-3.84 3.806H3.84C1.721 36.789 0 35.084 0 32.983V22.834c0-2.1 1.72-3.805 3.841-3.805h10.244zM7.6 31.477c.055.209.11.41.162.603.053.193.125.37.216.528.092.16.22.29.386.392.165.102.366.153.605.153.316 0 .564-.08.742-.238.18-.16.302-.335.368-.528.067-.193.153-.497.258-.91l1.616-6.364v6.896c0 .381.088.667.262.858.174.19.396.286.667.286.289 0 .52-.095.691-.286.172-.19.258-.477.258-.858v-7.904c0-.436-.115-.73-.344-.883-.23-.152-.539-.228-.928-.228h-.633c-.38 0-.657.034-.829.102a.693.693 0 0 0-.381.368c-.083.177-.177.466-.282.866L8.97 29.8l-1.465-5.47c-.106-.4-.2-.689-.282-.866a.693.693 0 0 0-.382-.368c-.172-.068-.448-.102-.828-.102H5.38c-.39 0-.7.076-.929.228-.229.153-.343.447-.343.883v7.904c0 .386.087.673.26.861a.876.876 0 0 0 .675.283c.284 0 .512-.095.684-.286.172-.19.258-.477.258-.858v-6.896l1.616 6.364zM34.287 8.727L27.044 1.55a3.867 3.867 0 0 0-5.432 0l-7.243 7.177a3.781 3.781 0 0 0 0 5.38l7.243 7.177a3.867 3.867 0 0 0 5.432 0l7.243-7.176a3.781 3.781 0 0 0 0-5.381zm-8.602 10.316a1.935 1.935 0 0 1-2.716 0 1.891 1.891 0 0 1 0-2.692 1.935 1.935 0 0 1 2.716 0c.75.743.75 1.948 0 2.692zm0-6.281a1.932 1.932 0 0 1-2.716 0 1.89 1.89 0 0 1 0-2.69 1.932 1.932 0 0 1 2.716 0 1.89 1.89 0 0 1 0 2.69zm0-6.278a1.935 1.935 0 0 1-2.716 0 1.891 1.891 0 0 1 0-2.692 1.935 1.935 0 0 1 2.716 0c.75.743.75 1.948 0 2.692zm-6.402 6.343a1.935 1.935 0 0 1-2.716 0 1.891 1.891 0 0 1 0-2.692 1.935 1.935 0 0 1 2.716 0c.75.743.75 1.948 0 2.692zm12.804 0a1.935 1.935 0 0 1-2.716 0 1.891 1.891 0 0 1 0-2.692 1.935 1.935 0 0 1 2.716 0c.75.743.75 1.948 0 2.692z"/>
    </g>
</svg>
