<svg xmlns="http://www.w3.org/2000/svg" width="28" height="28" viewBox="0 0 28 28">
    <g fill="none" fill-rule="evenodd" transform="translate(.444 .414)">
        <circle cx="13.76" cy="13.76" r="13.017" fill-rule="nonzero" stroke="#FFF" stroke-width="1.349"/>
        <path fill="#FFF" d="M17.873 15.693a3.513 3.513 0 0 0-1.687-.416 1.205 1.205 0 0 1-1.21-1.243c0-.674.536-1.226 1.21-1.244a3.483 3.483 0 0 0 1.687-.416 3.185 3.185 0 0 0 1.35-3.8 3.061 3.061 0 0 0-3.42-2.021 3.119 3.119 0 0 0-2.536 3.097c.021.594.187 1.173.482 1.69a1.246 1.246 0 0 1-.438 1.71c-.586.334-1.33.13-1.665-.454a3.579 3.579 0 0 0-1.189-1.273 3.012 3.012 0 0 0-3.885.69 3.201 3.201 0 0 0 0 4.041 3.012 3.012 0 0 0 3.885.704 3.56 3.56 0 0 0 1.192-1.273c.249-.41.873-.934 1.662-.468.577.363.77 1.115.438 1.711a3.667 3.667 0 0 0-.482 1.69 3.119 3.119 0 0 0 2.536 3.097 3.061 3.061 0 0 0 3.42-2.021 3.185 3.185 0 0 0-1.35-3.801z"/>
    </g>
</svg>
