<svg xmlns="http://www.w3.org/2000/svg" width="27" height="18" viewBox="0 0 27 18">
    <g fill="none" fill-rule="nonzero">
        <path fill="#FF4B55" d="M26.483 17.985H.465A.469.469 0 0 1 0 17.512V.488C0 .227.208.015.465.015h26.018c.256 0 .464.212.464.473v17.024a.469.469 0 0 1-.464.473z"/>
        <g fill="#FFE15A">
            <path d="M4.474 2.825l.443 1.352 1.4.01c.181.002.256.238.11.347l-1.126.847.423 1.358c.054.176-.142.322-.29.215l-1.139-.83-1.139.83c-.147.107-.344-.039-.29-.215l.423-1.358-1.126-.847c-.146-.11-.071-.345.11-.346l1.4-.011.443-1.352a.188.188 0 0 1 .358 0zM9.558 3.158l.317.441.513-.163c.066-.021.121.056.08.113l-.313.444.31.446c.04.057-.014.134-.08.112l-.512-.166-.32.438c-.042.057-.13.027-.131-.043l-.002-.547-.51-.175c-.065-.022-.065-.117.001-.14l.51-.17.006-.547c0-.071.09-.1.13-.043zM7.624 1.844l.534.059.228-.495a.072.072 0 0 1 .136.016l.11.535.533.068c.069.008.087.102.027.137l-.466.271.101.537c.014.07-.068.116-.12.069l-.397-.368-.47.265c-.061.034-.13-.03-.101-.095l.22-.499-.392-.373c-.05-.048-.012-.135.057-.127zM8.468 7.142l-.317.44-.513-.162c-.066-.022-.121.055-.08.113l.313.443-.31.446c-.04.058.014.135.08.113l.512-.167.32.439c.042.057.13.027.131-.044l.002-.546.51-.175c.065-.023.065-.118-.001-.14l-.51-.17-.006-.548c0-.07-.09-.1-.13-.042zM10.402 5.907l-.534.059-.228-.495a.072.072 0 0 0-.136.016l-.11.535-.533.068c-.07.008-.087.102-.027.137l.466.271-.102.537c-.013.07.069.116.12.069l.398-.368.47.265c.06.034.13-.03.101-.095l-.22-.499.392-.373c.05-.048.012-.135-.057-.127z"/>
        </g>
    </g>
</svg>
