<svg xmlns="http://www.w3.org/2000/svg" width="27" height="18" viewBox="0 0 27 18">
    <g fill="none" fill-rule="nonzero">
        <path fill="#F5F5F5" d="M26.536 17.984H.464A.468.468 0 0 1 0 17.512V.488C0 .225.21.016.464.016h26.067c.258 0 .464.214.464.471v17.025a.46.46 0 0 1-.46.472z"/>
        <g fill="#FF4B55">
            <path d="M26.536 17.984H.464A.468.468 0 0 1 0 17.512V15.15h27v2.362c0 .263-.21.472-.464.472zM.464.016h26.067c.258 0 .464.214.464.471V2.85H0V.487c0-.262.21-.47.464-.47z"/>
        </g>
        <path fill="#41479B" d="M0 5.689h27v6.621H0z"/>
    </g>
</svg>
